<mxfile host="app.diagrams.net" modified="2021-01-26T09:31:52.821Z" agent="5.0 (Windows NT 6.1; WOW64) AppleWebKit/537.36 (KHTML, like Gecko) Chrome/87.0.4280.88 Safari/537.36" etag="vEfPCbS8jgj-8cW6tvHE" version="14.1.7" type="github">
  <diagram id="FHFmZQXOXYVLDdbLkJBi" name="Page-1">
    <mxGraphModel dx="1929" dy="582" grid="1" gridSize="10" guides="1" tooltips="1" connect="1" arrows="1" fold="1" page="1" pageScale="1" pageWidth="827" pageHeight="1169" math="0" shadow="0">
      <root>
        <mxCell id="0" />
        <mxCell id="1" parent="0" />
        <mxCell id="WsQnj9h-rzJG_XH_zbQI-1" value="tycho-packaging-plugin" style="rounded=0;whiteSpace=wrap;html=1;fillColor=#1ba1e2;strokeColor=#006EAF;fontColor=#ffffff;" parent="1" vertex="1">
          <mxGeometry x="-365" y="570" width="120" height="60" as="geometry" />
        </mxCell>
        <mxCell id="XeX543HFN-AJkOh1X-WZ-2" style="edgeStyle=orthogonalEdgeStyle;rounded=0;orthogonalLoop=1;jettySize=auto;html=1;entryX=0.5;entryY=0;entryDx=0;entryDy=0;" parent="1" source="WsQnj9h-rzJG_XH_zbQI-2" target="WsQnj9h-rzJG_XH_zbQI-1" edge="1">
          <mxGeometry relative="1" as="geometry" />
        </mxCell>
        <mxCell id="XeX543HFN-AJkOh1X-WZ-3" style="edgeStyle=orthogonalEdgeStyle;rounded=0;orthogonalLoop=1;jettySize=auto;html=1;entryX=0.5;entryY=0;entryDx=0;entryDy=0;" parent="1" source="WsQnj9h-rzJG_XH_zbQI-2" target="XeX543HFN-AJkOh1X-WZ-1" edge="1">
          <mxGeometry relative="1" as="geometry" />
        </mxCell>
        <mxCell id="8ValJoX2CjmqTY149cfu-3" style="edgeStyle=orthogonalEdgeStyle;rounded=0;orthogonalLoop=1;jettySize=auto;html=1;exitX=1;exitY=1;exitDx=0;exitDy=0;entryX=0.5;entryY=0;entryDx=0;entryDy=0;" edge="1" parent="1" source="WsQnj9h-rzJG_XH_zbQI-2" target="8ValJoX2CjmqTY149cfu-1">
          <mxGeometry relative="1" as="geometry" />
        </mxCell>
        <mxCell id="WsQnj9h-rzJG_XH_zbQI-2" value="tycho-core" style="rounded=0;whiteSpace=wrap;html=1;fillColor=#60a917;strokeColor=#2D7600;fontColor=#ffffff;" parent="1" vertex="1">
          <mxGeometry x="-250" y="400" width="120" height="60" as="geometry" />
        </mxCell>
        <mxCell id="WsQnj9h-rzJG_XH_zbQI-17" style="edgeStyle=orthogonalEdgeStyle;rounded=0;orthogonalLoop=1;jettySize=auto;html=1;entryX=0;entryY=0.5;entryDx=0;entryDy=0;" parent="1" source="WsQnj9h-rzJG_XH_zbQI-4" target="WsQnj9h-rzJG_XH_zbQI-2" edge="1">
          <mxGeometry relative="1" as="geometry" />
        </mxCell>
        <mxCell id="WsQnj9h-rzJG_XH_zbQI-4" value="&lt;font color=&quot;#ffffff&quot;&gt;org.eclipse.tycho.p2.tools.shared&lt;/font&gt;" style="rounded=0;whiteSpace=wrap;html=1;fillColor=#4C0099;" parent="1" vertex="1">
          <mxGeometry x="-560" y="450" width="190" height="20" as="geometry" />
        </mxCell>
        <mxCell id="WsQnj9h-rzJG_XH_zbQI-22" style="edgeStyle=orthogonalEdgeStyle;rounded=0;orthogonalLoop=1;jettySize=auto;html=1;entryX=0;entryY=0.25;entryDx=0;entryDy=0;" parent="1" source="WsQnj9h-rzJG_XH_zbQI-6" target="WsQnj9h-rzJG_XH_zbQI-2" edge="1">
          <mxGeometry relative="1" as="geometry" />
        </mxCell>
        <mxCell id="WsQnj9h-rzJG_XH_zbQI-31" style="edgeStyle=orthogonalEdgeStyle;rounded=0;orthogonalLoop=1;jettySize=auto;html=1;entryX=0;entryY=0.5;entryDx=0;entryDy=0;exitX=0;exitY=0.5;exitDx=0;exitDy=0;" parent="1" source="WsQnj9h-rzJG_XH_zbQI-6" target="WsQnj9h-rzJG_XH_zbQI-4" edge="1">
          <mxGeometry relative="1" as="geometry" />
        </mxCell>
        <mxCell id="WsQnj9h-rzJG_XH_zbQI-6" value="&lt;font style=&quot;font-size: 11px&quot; color=&quot;#ffffff&quot;&gt;org.eclipse.tycho.p2.resolver.shared&lt;/font&gt;" style="rounded=0;whiteSpace=wrap;html=1;fillColor=#4C0099;" parent="1" vertex="1">
          <mxGeometry x="-550" y="404" width="200" height="22" as="geometry" />
        </mxCell>
        <mxCell id="WsQnj9h-rzJG_XH_zbQI-14" style="edgeStyle=orthogonalEdgeStyle;rounded=0;orthogonalLoop=1;jettySize=auto;html=1;entryX=1;entryY=0.25;entryDx=0;entryDy=0;" parent="1" source="WsQnj9h-rzJG_XH_zbQI-7" target="WsQnj9h-rzJG_XH_zbQI-2" edge="1">
          <mxGeometry relative="1" as="geometry" />
        </mxCell>
        <mxCell id="WsQnj9h-rzJG_XH_zbQI-7" value="sisu-equinox-embedder" style="rounded=0;whiteSpace=wrap;html=1;fillColor=#60a917;strokeColor=#2D7600;fontColor=#ffffff;" parent="1" vertex="1">
          <mxGeometry x="70" y="404" width="170" height="20" as="geometry" />
        </mxCell>
        <mxCell id="WsQnj9h-rzJG_XH_zbQI-23" style="edgeStyle=orthogonalEdgeStyle;rounded=0;orthogonalLoop=1;jettySize=auto;html=1;entryX=1;entryY=0.25;entryDx=0;entryDy=0;" parent="1" source="WsQnj9h-rzJG_XH_zbQI-8" target="WsQnj9h-rzJG_XH_zbQI-2" edge="1">
          <mxGeometry relative="1" as="geometry" />
        </mxCell>
        <mxCell id="WsQnj9h-rzJG_XH_zbQI-8" value="tycho-metadata-model" style="rounded=0;whiteSpace=wrap;html=1;fillColor=#60a917;strokeColor=#2D7600;fontColor=#ffffff;" parent="1" vertex="1">
          <mxGeometry x="70" y="470" width="170" height="20" as="geometry" />
        </mxCell>
        <mxCell id="WsQnj9h-rzJG_XH_zbQI-13" style="edgeStyle=orthogonalEdgeStyle;rounded=0;orthogonalLoop=1;jettySize=auto;html=1;entryX=1;entryY=0.5;entryDx=0;entryDy=0;" parent="1" source="WsQnj9h-rzJG_XH_zbQI-10" target="WsQnj9h-rzJG_XH_zbQI-2" edge="1">
          <mxGeometry relative="1" as="geometry">
            <Array as="points">
              <mxPoint x="-70" y="350" />
              <mxPoint x="-70" y="430" />
            </Array>
          </mxGeometry>
        </mxCell>
        <mxCell id="WsQnj9h-rzJG_XH_zbQI-34" style="edgeStyle=orthogonalEdgeStyle;rounded=0;orthogonalLoop=1;jettySize=auto;html=1;entryX=0.5;entryY=0;entryDx=0;entryDy=0;" parent="1" source="WsQnj9h-rzJG_XH_zbQI-10" target="WsQnj9h-rzJG_XH_zbQI-6" edge="1">
          <mxGeometry relative="1" as="geometry">
            <mxPoint x="-400" y="390" as="targetPoint" />
          </mxGeometry>
        </mxCell>
        <mxCell id="WsQnj9h-rzJG_XH_zbQI-10" value="&lt;font color=&quot;#ffffff&quot;&gt;org.eclipse.tycho.core.shared&lt;/font&gt;" style="rounded=0;whiteSpace=wrap;html=1;fillColor=#4C0099;" parent="1" vertex="1">
          <mxGeometry x="-270" y="340" width="170" height="20" as="geometry" />
        </mxCell>
        <mxCell id="WsQnj9h-rzJG_XH_zbQI-27" value="Jar file" style="rounded=0;whiteSpace=wrap;html=1;fillColor=#60a917;strokeColor=#2D7600;fontColor=#ffffff;" parent="1" vertex="1">
          <mxGeometry x="-570" y="10" width="100" height="40" as="geometry" />
        </mxCell>
        <mxCell id="WsQnj9h-rzJG_XH_zbQI-28" value="eclipse plugin" style="rounded=0;whiteSpace=wrap;html=1;strokeColor=#2D7600;fontColor=#ffffff;fillColor=#4C0099;" parent="1" vertex="1">
          <mxGeometry x="-410" y="10" width="100" height="40" as="geometry" />
        </mxCell>
        <mxCell id="WsQnj9h-rzJG_XH_zbQI-30" value="maven plugin" style="rounded=0;whiteSpace=wrap;html=1;strokeColor=#006EAF;fontColor=#ffffff;fillColor=#1ba1e2;" parent="1" vertex="1">
          <mxGeometry x="-260" y="10" width="100" height="40" as="geometry" />
        </mxCell>
        <mxCell id="WsQnj9h-rzJG_XH_zbQI-38" style="edgeStyle=orthogonalEdgeStyle;rounded=0;orthogonalLoop=1;jettySize=auto;html=1;" parent="1" source="WsQnj9h-rzJG_XH_zbQI-35" target="WsQnj9h-rzJG_XH_zbQI-10" edge="1">
          <mxGeometry relative="1" as="geometry" />
        </mxCell>
        <mxCell id="WsQnj9h-rzJG_XH_zbQI-39" style="edgeStyle=orthogonalEdgeStyle;rounded=0;orthogonalLoop=1;jettySize=auto;html=1;entryX=1;entryY=0.5;entryDx=0;entryDy=0;" parent="1" source="WsQnj9h-rzJG_XH_zbQI-35" target="WsQnj9h-rzJG_XH_zbQI-2" edge="1">
          <mxGeometry relative="1" as="geometry">
            <Array as="points">
              <mxPoint x="-50" y="260" />
              <mxPoint x="-50" y="430" />
            </Array>
          </mxGeometry>
        </mxCell>
        <mxCell id="WsQnj9h-rzJG_XH_zbQI-35" value="tycho-embedder-api" style="rounded=0;whiteSpace=wrap;html=1;fillColor=#60a917;strokeColor=#2D7600;fontColor=#ffffff;" parent="1" vertex="1">
          <mxGeometry x="-245" y="240" width="120" height="40" as="geometry" />
        </mxCell>
        <mxCell id="WsQnj9h-rzJG_XH_zbQI-37" style="edgeStyle=orthogonalEdgeStyle;rounded=0;orthogonalLoop=1;jettySize=auto;html=1;entryX=0.5;entryY=0;entryDx=0;entryDy=0;" parent="1" source="WsQnj9h-rzJG_XH_zbQI-36" target="WsQnj9h-rzJG_XH_zbQI-35" edge="1">
          <mxGeometry relative="1" as="geometry" />
        </mxCell>
        <mxCell id="WsQnj9h-rzJG_XH_zbQI-36" value="&lt;font color=&quot;#ffffff&quot;&gt;org.eclipse.tycho.embedder.shared&lt;/font&gt;" style="rounded=0;whiteSpace=wrap;html=1;fillColor=#4C0099;" parent="1" vertex="1">
          <mxGeometry x="-287.5" y="190" width="205" height="20" as="geometry" />
        </mxCell>
        <mxCell id="WsQnj9h-rzJG_XH_zbQI-41" style="edgeStyle=orthogonalEdgeStyle;rounded=0;orthogonalLoop=1;jettySize=auto;html=1;entryX=1;entryY=0.25;entryDx=0;entryDy=0;" parent="1" source="WsQnj9h-rzJG_XH_zbQI-40" target="WsQnj9h-rzJG_XH_zbQI-7" edge="1">
          <mxGeometry relative="1" as="geometry" />
        </mxCell>
        <mxCell id="WsQnj9h-rzJG_XH_zbQI-40" value="sisu-equinox-api" style="rounded=0;whiteSpace=wrap;html=1;fillColor=#60a917;strokeColor=#2D7600;fontColor=#ffffff;" parent="1" vertex="1">
          <mxGeometry x="310" y="400" width="140" height="18" as="geometry" />
        </mxCell>
        <mxCell id="8ValJoX2CjmqTY149cfu-2" style="edgeStyle=orthogonalEdgeStyle;rounded=0;orthogonalLoop=1;jettySize=auto;html=1;entryX=0;entryY=0.5;entryDx=0;entryDy=0;" edge="1" parent="1" source="XeX543HFN-AJkOh1X-WZ-1" target="8ValJoX2CjmqTY149cfu-1">
          <mxGeometry relative="1" as="geometry" />
        </mxCell>
        <mxCell id="XeX543HFN-AJkOh1X-WZ-1" value="tycho-p2-facade" style="rounded=0;whiteSpace=wrap;html=1;fillColor=#1ba1e2;strokeColor=#006EAF;fontColor=#ffffff;" parent="1" vertex="1">
          <mxGeometry x="-250" y="660" width="120" height="60" as="geometry" />
        </mxCell>
        <mxCell id="8ValJoX2CjmqTY149cfu-1" value="tycho-maven-plugin" style="rounded=0;whiteSpace=wrap;html=1;fillColor=#1ba1e2;strokeColor=#006EAF;fontColor=#ffffff;" vertex="1" parent="1">
          <mxGeometry x="-40" y="660" width="120" height="60" as="geometry" />
        </mxCell>
      </root>
    </mxGraphModel>
  </diagram>
</mxfile>
